<?xml version="1.0" standalone="no"?>
<!DOCTYPE svg PUBLIC "-//W3C//DTD SVG 20010904//EN"
 "http://www.w3.org/TR/2001/REC-SVG-20010904/DTD/svg10.dtd">
<svg version="1.0" xmlns="http://www.w3.org/2000/svg"
 width="1280.000000pt" height="1279.000000pt" viewBox="0 0 1280.000000 1279.000000"
 preserveAspectRatio="xMidYMid meet">
<metadata>
Created by potrace 1.15, written by Peter Selinger 2001-2017
</metadata>
<g transform="translate(0.000000,1279.000000) scale(0.100000,-0.100000)"
fill="#000000" stroke="none">
<path d="M10520 10533 c-130 -80 -540 -352 -662 -439 l-118 -85 -118 78 c-288
191 -648 340 -986 408 -318 64 -106 60 -3071 60 -2802 0 -2752 1 -3000 -41
-459 -77 -928 -287 -1295 -580 -109 -87 -297 -275 -384 -384 -283 -356 -447
-727 -524 -1194 -15 -92 -17 -344 -20 -2916 -2 -1836 1 -2860 7 -2945 25 -324
101 -600 242 -885 142 -287 310 -512 549 -735 341 -320 791 -554 1270 -663
317 -72 63 -67 3145 -67 l2770 0 140 22 c929 149 1667 670 2050 1448 110 224
177 434 222 702 17 103 18 248 18 3023 0 3096 2 2959 -46 3185 -77 364 -250
723 -497 1032 -79 100 -90 116 -74 111 8 -3 353 357 449 469 94 109 115 163
63 163 -41 0 -331 -164 -405 -229 -96 -85 -53 -37 171 187 l251 251 -29 36
c-16 19 -33 35 -36 34 -4 0 -41 -21 -82 -46z m-2155 -1091 c61 -12 149 -33
196 -46 96 -29 259 -94 259 -105 0 -4 -82 -78 -182 -166 -1319 -1154 -2662
-2684 -3869 -4410 -97 -137 -207 -296 -245 -353 -38 -56 -74 -100 -80 -98 -9
3 -1374 818 -2181 1302 l-72 43 -30 -38 -31 -38 112 -139 c496 -616 2631
-3234 2637 -3234 4 0 13 10 20 22 6 13 9 15 7 6 -5 -19 50 -73 91 -89 39 -15
85 11 120 67 16 27 74 144 128 259 274 583 765 1531 1110 2140 849 1501 1864
2942 2918 4143 64 74 105 128 101 135 -4 7 3 3 15 -8 59 -52 172 -258 221
-403 65 -195 61 14 58 -3127 l-3 -2850 -27 -100 c-16 -55 -38 -125 -50 -155
-149 -378 -465 -686 -866 -845 -191 -75 -349 -110 -567 -125 -190 -13 -5023
-13 -5213 0 -243 17 -443 67 -649 165 -447 212 -744 571 -840 1018 -17 77 -18
244 -18 2932 0 2702 1 2854 18 2935 38 180 100 328 203 482 254 382 708 644
1209 697 44 5 1275 8 2735 7 l2655 -2 110 -22z"/>
</g>
</svg>
